# xmcd
#
# Track frame offsets: 
#        150
#        40170
#        59215
#        77098
#        92989
#        115254
#        127872
#        148258
#        167093
#        192052
#        212849
#        230289
#        242054
#        260947
#        272278
#        295463
#
# Disc length: 4256 seconds
#
# Revision: 0
# Processed by: cddbd v1.5.2PL0 Copyright (c) Steve Scherf et al.
# Submitted via: ExactAudioCopy v0.95b3
#
DISCID=f3109e10
DTITLE=The Rolling Stones  - Record Mirror, Vol. 2  1968 - 1974  [CD04
DTITLE=)
DYEAR=1900
DGENRE=
TTITLE0=Rolling Stones - Tumbling Dice
TTITLE1=Rolling Stones - Potted Shrimp
TTITLE2=Rolling Stones - Alladin Story
TTITLE3=Rolling Stones - Leather Jacket
TTITLE4=Rolling Stones - Dancing With Mr.D
TTITLE5=Rolling Stones - Separately
TTITLE6=Rolling Stones - Criss Cross Man
TTITLE7=Rolling Stones - Silver Man
TTITLE8=Rolling Stones - Winter
TTITLE9=Rolling Stones - Angie
TTITLE10=Rolling Stones - Who Am I
TTITLE11=Rolling Stones - Living In The Heart of Love
TTITLE12=Rolling Stones - Drift Away
TTITLE13=Rolling Stones - I Can't Help It
TTITLE14=Rolling Stones - Dance Little Sister
TTITLE15=Rolling Stones - It's Only Rock'n Roll
EXTD=
EXTT0=
EXTT1=
EXTT2=
EXTT3=
EXTT4=
EXTT5=
EXTT6=
EXTT7=
EXTT8=
EXTT9=
EXTT10=
EXTT11=
EXTT12=
EXTT13=
EXTT14=
EXTT15=
PLAYORDER=
